<svg width="162" height="40" viewBox="0 0 162 40" fill="none" xmlns="http://www.w3.org/2000/svg">
  <path
    d="M79.7298 18.3872L63.0118 27.1812C61.4919 27.9812 61.4919 30.1612 63.0118 30.9602L79.7298 39.7552C80.3496 40.0812 81.0901 40.0812 81.7098 39.7552L98.4278 30.9602C99.9478 30.1602 99.9478 27.9802 98.4278 27.1812L81.7098 18.3862C81.0901 18.0602 80.3496 18.0602 79.7298 18.3872Z"
    fill="url(#paint0_linear_2_9)" />
  <path opacity="0.05"
    d="M82.1739 31.5693L94.4719 25.1003L81.7108 18.3873C81.0911 18.0613 80.3506 18.0613 79.7309 18.3873L66.9678 25.1003L79.2648 31.5693C79.7109 31.8043 80.2149 31.9293 80.7199 31.9293C81.2248 31.9293 81.7288 31.8053 82.1739 31.5693Z"
    fill="black" />
  <path opacity="0.07"
    d="M81.9424 31.1273L93.935 24.8183L81.7098 18.3873C81.0901 18.0613 80.3496 18.0613 79.7299 18.3873L67.5047 24.8183L79.4973 31.1273C79.8726 31.3253 80.2957 31.4303 80.7198 31.4303C81.144 31.4303 81.5671 31.3253 81.9424 31.1273Z"
    fill="black" />
  <path
    d="M79.7298 9.31624L63.0118 18.1102C61.4919 18.9102 61.4919 21.0902 63.0118 21.8892L79.7298 30.6842C80.3496 31.0102 81.0901 31.0102 81.7098 30.6842L98.4278 21.8892C99.9478 21.0892 99.9478 18.9092 98.4278 18.1102L81.7098 9.31524C81.0901 8.98924 80.3496 8.98924 79.7298 9.31624Z"
    fill="url(#paint1_linear_2_9)" />
  <path opacity="0.05"
    d="M82.1739 22.4983L94.4709 16.0293L81.7099 9.31628C81.0901 8.99028 80.3496 8.99028 79.7299 9.31628L66.9688 16.0293L79.2648 22.4983C79.7109 22.7333 80.2149 22.8583 80.7199 22.8583C81.2248 22.8583 81.7288 22.7333 82.1739 22.4983Z"
    fill="black" />
  <path opacity="0.07"
    d="M81.9424 22.0563L93.935 15.7473L81.7098 9.31628C81.0901 8.99028 80.3496 8.99028 79.7299 9.31628L67.5047 15.7473L79.4973 22.0563C79.8726 22.2543 80.2957 22.3593 80.7198 22.3593C81.144 22.3593 81.5671 22.2543 81.9424 22.0563Z"
    fill="black" />
  <path
    d="M79.7298 0.24525L63.0118 9.03925C61.4919 9.83925 61.4919 12.0193 63.0118 12.8183L79.7298 21.6133C80.3496 21.9393 81.0901 21.9393 81.7098 21.6133L98.4278 12.8183C99.9478 12.0183 99.9478 9.83825 98.4278 9.03925L81.7098 0.24525C81.0901 -0.08175 80.3496 -0.08175 79.7298 0.24525Z"
    fill="url(#paint2_linear_2_9)" />
  <path
    d="M111.158 27.206C110.466 27.206 109.867 27.0852 109.361 26.8438C108.859 26.5975 108.489 26.233 108.253 25.75C108.016 25.267 107.957 24.6681 108.075 23.9531C108.179 23.3471 108.376 22.8404 108.665 22.4332C108.958 22.0213 109.316 21.6899 109.737 21.4389C110.158 21.188 110.625 20.9962 111.136 20.8636C111.652 20.7311 112.185 20.6411 112.734 20.5938C113.369 20.5275 113.885 20.4635 114.283 20.402C114.685 20.3404 114.986 20.2528 115.185 20.1392C115.383 20.0208 115.504 19.8456 115.547 19.6136V19.571C115.618 19.1259 115.535 18.7803 115.298 18.5341C115.066 18.2831 114.694 18.1577 114.183 18.1577C113.643 18.1577 113.184 18.276 112.805 18.5128C112.431 18.7495 112.164 19.0502 112.003 19.4148L109.247 19.1875C109.493 18.5246 109.865 17.9517 110.362 17.4688C110.864 16.9811 111.468 16.607 112.173 16.3466C112.879 16.0814 113.669 15.9489 114.545 15.9489C115.151 15.9489 115.717 16.0199 116.243 16.1619C116.773 16.304 117.23 16.5241 117.614 16.8224C118.002 17.1207 118.281 17.5043 118.452 17.973C118.627 18.437 118.662 18.9934 118.558 19.642L117.329 27H114.46L114.716 25.4872H114.631C114.399 25.8281 114.114 26.1288 113.778 26.3892C113.442 26.6449 113.056 26.8461 112.621 26.9929C112.185 27.1349 111.697 27.206 111.158 27.206ZM112.372 25.1179C112.812 25.1179 113.217 25.0303 113.587 24.8551C113.961 24.6752 114.268 24.4337 114.51 24.1307C114.756 23.8277 114.912 23.4844 114.979 23.1009L115.163 21.9432C115.069 22.0047 114.931 22.0592 114.751 22.1065C114.576 22.1539 114.384 22.1989 114.176 22.2415C113.972 22.2794 113.766 22.3149 113.558 22.348C113.35 22.3764 113.163 22.4048 112.997 22.4332C112.632 22.4853 112.306 22.5682 112.017 22.6818C111.728 22.7955 111.494 22.9493 111.314 23.1435C111.134 23.3329 111.023 23.5696 110.98 23.8537C110.914 24.2656 111.011 24.5805 111.271 24.7983C111.536 25.0114 111.903 25.1179 112.372 25.1179ZM119.016 31.0909L121.53 16.0909H124.513L124.208 17.9233H124.343C124.523 17.6297 124.762 17.3314 125.06 17.0284C125.363 16.7206 125.74 16.465 126.189 16.2614C126.639 16.053 127.167 15.9489 127.773 15.9489C128.573 15.9489 129.272 16.1572 129.868 16.5739C130.465 16.9858 130.896 17.6084 131.161 18.4418C131.431 19.2704 131.462 20.3097 131.253 21.5597C131.055 22.7765 130.688 23.804 130.153 24.642C129.622 25.4754 128.985 26.1075 128.242 26.5384C127.503 26.9645 126.72 27.1776 125.891 27.1776C125.304 27.1776 124.821 27.0805 124.442 26.8864C124.068 26.6922 123.777 26.4484 123.569 26.1548C123.36 25.8565 123.214 25.5559 123.128 25.2528H123.015L122.049 31.0909H119.016ZM123.583 21.5455C123.479 22.1941 123.474 22.7599 123.569 23.2429C123.668 23.7259 123.867 24.1023 124.165 24.3722C124.464 24.6373 124.857 24.7699 125.344 24.7699C125.837 24.7699 126.275 24.6349 126.658 24.3651C127.042 24.0904 127.361 23.7116 127.617 23.2287C127.873 22.741 128.055 22.1799 128.164 21.5455C128.263 20.9157 128.266 20.3617 128.171 19.8835C128.076 19.4053 127.882 19.0312 127.589 18.7614C127.295 18.4915 126.897 18.3565 126.395 18.3565C125.908 18.3565 125.47 18.4867 125.082 18.7472C124.698 19.0076 124.378 19.3769 124.123 19.8551C123.867 20.3333 123.687 20.8968 123.583 21.5455ZM131.692 31.0909L134.206 16.0909H137.189L136.884 17.9233H137.019C137.199 17.6297 137.438 17.3314 137.736 17.0284C138.039 16.7206 138.415 16.465 138.865 16.2614C139.315 16.053 139.843 15.9489 140.449 15.9489C141.249 15.9489 141.948 16.1572 142.544 16.5739C143.141 16.9858 143.572 17.6084 143.837 18.4418C144.107 19.2704 144.138 20.3097 143.929 21.5597C143.73 22.7765 143.363 23.804 142.828 24.642C142.298 25.4754 141.661 26.1075 140.918 26.5384C140.179 26.9645 139.396 27.1776 138.567 27.1776C137.98 27.1776 137.497 27.0805 137.118 26.8864C136.744 26.6922 136.453 26.4484 136.245 26.1548C136.036 25.8565 135.889 25.5559 135.804 25.2528H135.691L134.725 31.0909H131.692ZM136.259 21.5455C136.155 22.1941 136.15 22.7599 136.245 23.2429C136.344 23.7259 136.543 24.1023 136.841 24.3722C137.139 24.6373 137.532 24.7699 138.02 24.7699C138.513 24.7699 138.951 24.6349 139.334 24.3651C139.718 24.0904 140.037 23.7116 140.293 23.2287C140.549 22.741 140.731 22.1799 140.84 21.5455C140.939 20.9157 140.942 20.3617 140.847 19.8835C140.752 19.4053 140.558 19.0312 140.264 18.7614C139.971 18.4915 139.573 18.3565 139.071 18.3565C138.584 18.3565 138.146 18.4867 137.757 18.7472C137.374 19.0076 137.054 19.3769 136.799 19.8551C136.543 20.3333 136.363 20.8968 136.259 21.5455ZM155.39 19.2017L152.642 19.3722C152.628 19.1307 152.561 18.9152 152.443 18.7259C152.329 18.5317 152.161 18.3778 151.939 18.2642C151.721 18.1506 151.446 18.0938 151.115 18.0938C150.618 18.0938 150.175 18.2074 149.787 18.4347C149.399 18.6619 149.178 18.9531 149.126 19.3082C149.084 19.5355 149.143 19.7273 149.304 19.8835C149.465 20.0398 149.789 20.1723 150.277 20.2812L152.194 20.679C153.217 20.8968 153.956 21.259 154.41 21.7656C154.87 22.2723 155.033 22.9351 154.9 23.7543C154.782 24.4503 154.477 25.0587 153.984 25.5795C153.492 26.0956 152.867 26.4981 152.109 26.7869C151.352 27.071 150.511 27.2131 149.588 27.2131C148.106 27.2131 146.979 26.91 146.207 26.304C145.435 25.6979 145.064 24.8764 145.092 23.8395L148.047 23.6832C148.07 24.1283 148.227 24.4645 148.515 24.6918C148.804 24.9143 149.2 25.0279 149.702 25.0327C150.265 25.0421 150.743 24.9261 151.136 24.6847C151.534 24.4384 151.759 24.1402 151.811 23.7898C151.849 23.5436 151.778 23.3447 151.598 23.1932C151.423 23.0417 151.101 22.9162 150.632 22.8168L148.814 22.4403C147.782 22.2273 147.041 21.8461 146.591 21.2969C146.141 20.7476 145.987 20.0492 146.129 19.2017C146.243 18.5246 146.524 17.9446 146.974 17.4616C147.429 16.974 148.014 16.5999 148.729 16.3395C149.448 16.0791 150.26 15.9489 151.165 15.9489C152.58 15.9489 153.646 16.2401 154.361 16.8224C155.08 17.4048 155.424 18.1979 155.39 19.2017Z"
    fill="#E1E1E6" />
  <path
    d="M10.6605 19.2017L7.91193 19.3722C7.89773 19.1307 7.83144 18.9152 7.71307 18.7259C7.59943 18.5317 7.43134 18.3778 7.20881 18.2642C6.991 18.1506 6.71638 18.0938 6.38494 18.0938C5.88778 18.0938 5.44508 18.2074 5.05682 18.4347C4.66856 18.6619 4.44839 18.9531 4.39631 19.3082C4.35369 19.5355 4.41288 19.7273 4.57386 19.8835C4.73485 20.0398 5.05919 20.1723 5.54688 20.2812L7.46449 20.679C8.48722 20.8968 9.22585 21.259 9.6804 21.7656C10.1397 22.2723 10.303 22.9351 10.1705 23.7543C10.0521 24.4503 9.74669 25.0587 9.25426 25.5795C8.76184 26.0956 8.13684 26.4981 7.37926 26.7869C6.62169 27.071 5.78125 27.2131 4.85795 27.2131C3.37595 27.2131 2.24905 26.91 1.47727 26.304C0.705492 25.6979 0.333807 24.8764 0.362216 23.8395L3.31676 23.6832C3.34044 24.1283 3.49669 24.4645 3.78551 24.6918C4.07434 24.9143 4.4697 25.0279 4.97159 25.0327C5.53504 25.0421 6.01326 24.9261 6.40625 24.6847C6.80398 24.4384 7.02888 24.1402 7.08097 23.7898C7.11884 23.5436 7.04782 23.3447 6.8679 23.1932C6.69271 23.0417 6.37074 22.9162 5.90199 22.8168L4.08381 22.4403C3.05161 22.2273 2.31061 21.8461 1.8608 21.2969C1.41098 20.7476 1.2571 20.0492 1.39915 19.2017C1.51278 18.5246 1.79451 17.9446 2.24432 17.4616C2.69886 16.974 3.28362 16.5999 3.99858 16.3395C4.71828 16.0791 5.5303 15.9489 6.43466 15.9489C7.85038 15.9489 8.91572 16.2401 9.63068 16.8224C10.3504 17.4048 10.6937 18.1979 10.6605 19.2017ZM19.1495 16.0909L18.7731 18.3636H12.1964L12.5799 16.0909H19.1495ZM14.4975 13.4773H17.5231L15.8327 23.6477C15.7854 23.9271 15.7925 24.1449 15.854 24.3011C15.9156 24.4527 16.0174 24.5592 16.1594 24.6207C16.3062 24.6823 16.4814 24.7131 16.685 24.7131C16.8271 24.7131 16.9715 24.7012 17.1183 24.6776C17.265 24.6491 17.3763 24.6278 17.4521 24.6136L17.5657 26.8651C17.3952 26.9171 17.1656 26.974 16.8768 27.0355C16.5927 27.0971 16.2565 27.1349 15.8683 27.1491C15.1296 27.1776 14.5046 27.0805 13.9933 26.858C13.4819 26.6307 13.1149 26.2827 12.8924 25.8139C12.6699 25.3452 12.6225 24.7557 12.7504 24.0455L14.4975 13.4773ZM22.3846 27.206C21.6933 27.206 21.0943 27.0852 20.5877 26.8438C20.0858 26.5975 19.7165 26.233 19.4798 25.75C19.243 25.267 19.1838 24.6681 19.3022 23.9531C19.4064 23.3471 19.6029 22.8404 19.8917 22.4332C20.1853 22.0213 20.5427 21.6899 20.9641 21.4389C21.3855 21.188 21.8519 20.9962 22.3633 20.8636C22.8794 20.7311 23.4121 20.6411 23.9613 20.5938C24.5958 20.5275 25.1119 20.4635 25.5096 20.402C25.9121 20.3404 26.2127 20.2528 26.4116 20.1392C26.6104 20.0208 26.7312 19.8456 26.7738 19.6136V19.571C26.8448 19.1259 26.762 18.7803 26.5252 18.5341C26.2932 18.2831 25.9215 18.1577 25.4102 18.1577C24.8704 18.1577 24.4111 18.276 24.0323 18.5128C23.6583 18.7495 23.3907 19.0502 23.2298 19.4148L20.4741 19.1875C20.7203 18.5246 21.092 17.9517 21.5891 17.4688C22.091 16.9811 22.6947 16.607 23.4002 16.3466C24.1057 16.0814 24.8964 15.9489 25.7724 15.9489C26.3784 15.9489 26.9442 16.0199 27.4698 16.1619C28.0001 16.304 28.457 16.5241 28.8406 16.8224C29.2288 17.1207 29.5082 17.5043 29.6786 17.973C29.8538 18.437 29.8893 18.9934 29.7852 19.642L28.5565 27H25.6871L25.9428 25.4872H25.8576C25.6256 25.8281 25.3415 26.1288 25.0053 26.3892C24.6692 26.6449 24.2833 26.8461 23.8477 26.9929C23.4121 27.1349 22.9244 27.206 22.3846 27.206ZM23.5991 25.1179C24.0394 25.1179 24.4442 25.0303 24.8136 24.8551C25.1876 24.6752 25.4954 24.4337 25.7369 24.1307C25.9831 23.8277 26.1393 23.4844 26.2056 23.1009L26.3903 21.9432C26.2956 22.0047 26.1583 22.0592 25.9783 22.1065C25.8031 22.1539 25.6114 22.1989 25.4031 22.2415C25.1995 22.2794 24.9935 22.3149 24.7852 22.348C24.5768 22.3764 24.3898 22.4048 24.2241 22.4332C23.8595 22.4853 23.5328 22.5682 23.244 22.6818C22.9551 22.7955 22.7208 22.9493 22.5408 23.1435C22.3609 23.3329 22.2496 23.5696 22.207 23.8537C22.1407 24.2656 22.2378 24.5805 22.4982 24.7983C22.7634 25.0114 23.1303 25.1179 23.5991 25.1179ZM35.8043 27.2131C34.6822 27.2131 33.7589 26.9763 33.0344 26.5028C32.3147 26.0246 31.8105 25.3617 31.5217 24.5142C31.2376 23.6667 31.1879 22.6913 31.3725 21.5881C31.5524 20.4706 31.9289 19.4905 32.5018 18.6477C33.0747 17.8002 33.8015 17.1397 34.6822 16.6662C35.5676 16.188 36.5619 15.9489 37.6651 15.9489C38.6168 15.9489 39.4218 16.1217 40.0799 16.4673C40.738 16.813 41.221 17.2983 41.5288 17.9233C41.8365 18.5483 41.9407 19.2822 41.8413 20.125H38.9933C38.998 19.5852 38.8583 19.1473 38.5742 18.8111C38.2901 18.4749 37.8735 18.3068 37.3242 18.3068C36.8507 18.3068 36.4151 18.4347 36.0174 18.6903C35.6244 18.9413 35.2906 19.3082 35.016 19.7912C34.7461 20.2741 34.5567 20.8589 34.4478 21.5455C34.3342 22.2415 34.3318 22.8333 34.4407 23.321C34.5496 23.8087 34.7579 24.1804 35.0657 24.4361C35.3735 24.6918 35.7617 24.8196 36.2305 24.8196C36.5808 24.8196 36.9052 24.7486 37.2035 24.6065C37.5065 24.4645 37.7717 24.2585 37.9989 23.9886C38.2262 23.714 38.4014 23.3849 38.5245 23.0014H41.3796C41.1855 23.8395 40.8327 24.5734 40.3214 25.2031C39.8147 25.8329 39.1779 26.3253 38.4109 26.6804C37.6438 27.0355 36.775 27.2131 35.8043 27.2131ZM45.902 23.8608L46.5057 20.2315H46.946L51.1435 16.0909H54.6165L49.0199 21.5739H48.2955L45.902 23.8608ZM42.642 27L45.0568 12.4545H48.0824L45.6676 27H42.642ZM49.4602 27L47.0455 22.2486L49.4105 20.1108L53.0043 27H49.4602Z"
    fill="#E1E1E6" />
  <defs>
    <linearGradient id="paint0_linear_2_9" x1="59.0159" y1="8.99622" x2="90.8897" y2="38.3587"
      gradientUnits="userSpaceOnUse">
      <stop stop-color="#0077D2" />
      <stop offset="1" stop-color="#0B59A2" />
    </linearGradient>
    <linearGradient id="paint1_linear_2_9" x1="63.5278" y1="4.09824" x2="95.4015" y2="33.4607"
      gradientUnits="userSpaceOnUse">
      <stop stop-color="#2AA4F4" />
      <stop offset="1" stop-color="#007AD9" />
    </linearGradient>
    <linearGradient id="paint2_linear_2_9" x1="68.0396" y1="-0.79875" x2="99.9134" y2="28.5627"
      gradientUnits="userSpaceOnUse">
      <stop stop-color="#75DAFF" />
      <stop offset="1" stop-color="#1EA2E4" />
    </linearGradient>
  </defs>
</svg>
